<svg t="1667185367982" class="icon" viewBox="0 0 1024 1024" version="1.1" xmlns="http://www.w3.org/2000/svg" p-id="2022" width="200" height="200"><path d="M512 887.466667C303.786667 887.466667 136.533333 720.213333 136.533333 512S303.786667 136.533333 512 136.533333s375.466667 167.253333 375.466667 375.466667-167.253333 375.466667-375.466667 375.466667z m0-716.8C324.266667 170.666667 170.666667 324.266667 170.666667 512s153.6 341.333333 341.333333 341.333333 341.333333-153.6 341.333333-341.333333S699.733333 170.666667 512 170.666667z" fill="" p-id="2023"></path><path d="M512 1024C228.693333 1024 0 795.306667 0 512S228.693333 0 512 0s512 228.693333 512 512-228.693333 512-512 512z m0-989.866667C249.173333 34.133333 34.133333 249.173333 34.133333 512s215.04 477.866667 477.866667 477.866667 477.866667-215.04 477.866667-477.866667S774.826667 34.133333 512 34.133333z" fill="" p-id="2024"></path><path d="M375.466667 409.6m-34.133334 0a34.133333 34.133333 0 1 0 68.266667 0 34.133333 34.133333 0 1 0-68.266667 0Z" fill="" p-id="2025"></path><path d="M648.533333 409.6m-34.133333 0a34.133333 34.133333 0 1 0 68.266667 0 34.133333 34.133333 0 1 0-68.266667 0Z" fill="" p-id="2026"></path><path d="M375.466667 648.533333m-34.133334 0a34.133333 34.133333 0 1 0 68.266667 0 34.133333 34.133333 0 1 0-68.266667 0Z" fill="" p-id="2027"></path><path d="M648.533333 648.533333m-34.133333 0a34.133333 34.133333 0 1 0 68.266667 0 34.133333 34.133333 0 1 0-68.266667 0Z" fill="" p-id="2028"></path></svg>