<svg t="1664264491477" class="icon" viewBox="0 0 1024 1024" version="1.1" xmlns="http://www.w3.org/2000/svg" p-id="1224" width="200" height="200"><path d="M693.475556 112.981333a7.964444 7.964444 0 0 1 5.916444 2.56l180.451556 194.673778a7.964444 7.964444 0 0 1 2.161777 5.404445v587.377777a7.964444 7.964444 0 0 1-7.964444 7.964445H149.959111a7.964444 7.964444 0 0 1-7.964444-7.964445V121.002667a7.964444 7.964444 0 0 1 7.964444-7.964445h543.516445z m-100.465778 72.021334H214.016v653.994666h595.968v-424.96h-209.009778a7.964444 7.964444 0 0 1-7.964444-8.021333V185.002667zM435.768889 510.976l33.962667 33.962667a7.964444 7.964444 0 0 1 0 11.320889L393.386667 632.604444l76.344889 76.401778a7.964444 7.964444 0 0 1 0 11.320889l-33.962667 33.905778a7.964444 7.964444 0 0 1-11.320889 0L305.664 635.448889a3.982222 3.982222 0 0 1 0-5.688889l118.784-118.727111a7.964444 7.964444 0 0 1 11.377778 0z m162.816-0.170667l0.227555 0.227556 118.784 118.784a3.982222 3.982222 0 0 1 0.113778 5.518222l-0.113778 0.113778-118.784 118.784a7.964444 7.964444 0 0 1-11.150222 0.170667l-0.170666-0.170667-33.962667-33.905778a7.964444 7.964444 0 0 1-0.170667-11.150222l0.170667-0.170667 76.344889-76.401778L553.528889 556.259556a7.964444 7.964444 0 0 1-0.170667-11.150223l0.170667-0.170666 33.962667-33.905778a7.964444 7.964444 0 0 1 11.093333-0.227556zM665.6 185.002667h-0.568889v157.013333h144.952889V340.764444L665.6 185.002667z" p-id="1225"></path></svg>