<svg t="1664264457525" class="icon" viewBox="0 0 1024 1024" version="1.1" xmlns="http://www.w3.org/2000/svg" p-id="1085" width="200" height="200"><path d="M289.28 758.4a32.64 32.64 0 0 1-21.12-8.32L15.36 522.24a30.72 30.72 0 0 1-10.88-23.68 35.84 35.84 0 0 1 10.88-23.68l256-222.72a32 32 0 1 1 42.24 48l-228.48 198.4L311.04 704a32 32 0 0 1 0 45.44 32 32 0 0 1-21.76 8.96zM731.52 758.4a32.64 32.64 0 0 1-23.68-10.88 32.64 32.64 0 0 1 0-45.44l225.92-203.52-223.36-198.4a32 32 0 0 1 0-45.44 31.36 31.36 0 0 1 44.8 0l256 222.72a31.36 31.36 0 0 1 0 47.36l-252.16 227.84a35.2 35.2 0 0 1-27.52 5.76zM441.6 866.56h-5.12a32.64 32.64 0 0 1-26.24-34.56L522.88 145.28a32.64 32.64 0 0 1 37.12-26.24 31.36 31.36 0 0 1 26.24 36.48L473.6 840.32a32 32 0 0 1-32 26.24z"  p-id="1086"></path></svg>