<svg t="1665301839531" class="icon" viewBox="0 0 1502 1024" version="1.1" xmlns="http://www.w3.org/2000/svg" p-id="1700" width="200" height="200"><path d="M0 955.733333c0 68.266667 66.286933 68.266667 66.286933 68.266667l1367.108267 0c0 0 68.471467 0 68.471467-68.266667s-68.471467-68.266667-68.471467-68.266667L66.286933 887.466667C66.286933 887.466667 0 887.466667 0 955.733333zM580.266667 921.6l273.066667 0c0 0 34.133333 0 34.133333 34.133333s-34.133333 34.133333-34.133333 34.133333l-273.066667 0c0 0-34.133333 0-34.133333-34.133333S580.266667 921.6 580.266667 921.6z" p-id="1701"></path><path d="M1433.6 819.2 1433.6 136.533333c0-136.533333-136.533333-136.533333-136.533333-136.533333L204.8 0c0 0-136.533333 0-136.533333 136.533333l0 682.666667 68.266667 0 6.212267 0L136.533333 136.328533C136.533333 74.478933 210.261333 68.266667 210.261333 68.266667l1079.978667 0C1290.171733 68.266667 1365.333333 74.478933 1365.333333 136.328533L1365.333333 819.2 1433.6 819.2z" p-id="1702"></path></svg>