<svg t="1668417020621" class="icon" viewBox="0 0 1024 1024" version="1.1" xmlns="http://www.w3.org/2000/svg" p-id="2701" width="200" height="200"><path d="M512 1024c-81.321708 0-154.969169-47.989933-188.864719-121.234697h-182.939326a87.707326 87.707326 0 0 1-72.865079-136.307056l53.915326-80.780944V451.376899A389.844854 389.844854 0 0 1 378.672899 84.175101C403.248899 33.331775 455.288809 0 512 0s108.739596 33.366292 133.315596 84.163596a389.844854 389.844854 0 0 1 257.449707 367.213303v234.288899l53.903821 80.792449a87.69582 87.69582 0 0 1-72.934113 136.341573h-182.939326C666.946157 975.998562 593.310202 1024 512 1024z m0-969.923596c-39.372225 0-73.889079 24.069753-87.960449 61.324944l-4.602248 12.10391-12.288 4.026967a335.964045 335.964045 0 0 0-231.872719 319.856179v250.638383l-63.004764 94.346067a33.642427 33.642427 0 0 0 27.958652 52.258517h220.102472l6.397123 17.983281c21.860674 61.750652 80.286202 103.23991 145.246922 103.23991s123.305708-41.489258 145.235415-103.23991l6.385618-17.983281h220.102472a33.619416 33.619416 0 0 0 27.970158-52.258517l-62.981753-94.346067V451.376899a335.964045 335.964045 0 0 0-231.884225-319.85618l-12.299505-4.026966-4.602248-12.115416c-13.818247-36.67991-49.140494-61.313438-87.902921-61.313438z" p-id="2702"></path><path d="M333.570876 848.780944h363.727102v54.064899H333.570876z" p-id="2703"></path></svg>