<svg t="1668416951324" class="icon" viewBox="0 0 1024 1024" version="1.1" xmlns="http://www.w3.org/2000/svg" p-id="2383" width="200" height="200"><path d="M512 0a170.666667 170.666667 0 0 1 170.666667 170.666667l-0.128 2.944a341.248 341.248 0 0 1 170.581333 283.136L853.333333 469.333333l-0.042666 167.253334 69.76 63.445333 53.674666 31.018667a42.666667 42.666667 0 0 1 21.333334 37.205333c16.938667 15.616 20.394667 40.490667 9.642666 59.861333l-2.986666 4.693334-3.626667 4.48a49.066667 49.066667 0 0 1-30.421333 15.701333l-5.888 0.341333-211.370667 0.042667a256.170667 256.170667 0 0 1-482.816 0L59.221333 853.333333a49.066667 49.066667 0 0 1-37.12-81.152l4.096-4.224L170.666667 636.629333 170.666667 469.333333c0-33.706667 4.864-66.261333 13.994666-96.981333l-137.386666-79.402667a42.666667 42.666667 0 0 1 42.666666-73.898666l129.322667 74.666666a343.04 343.04 0 0 1 122.24-120.149333L341.333333 170.666667a170.666667 170.666667 0 0 1 170.666667-170.666667z m147.84 853.376h-295.68a170.837333 170.837333 0 0 0 295.68 0zM261.418667 416.64a256.213333 256.213333 0 0 0-5.077334 39.253333L256 469.333333v205.056L152.96 768h717.098667L261.418667 416.64zM512 213.333333a255.872 255.872 0 0 0-218.837333 123.050667L768 610.474667 768 469.333333a256 256 0 0 0-246.4-255.829333L512 213.333333z m0-128a85.333333 85.333333 0 0 0-78.506667 51.754667c17.536-4.138667 35.584-6.912 53.973334-8.234667l13.909333-0.682666L512 128c27.008 0 53.248 3.114667 78.464 9.045333A85.333333 85.333333 0 0 0 512 85.333333z" p-id="2384"></path></svg>