<svg t="1668420919523" class="icon" viewBox="0 0 1024 1024" version="1.1" xmlns="http://www.w3.org/2000/svg" p-id="2263" width="200" height="200"><path d="M792.1 702.7l110.1-110.1c12.7-12.7 12.7-33.3 0-46-12.7-12.7-33.3-12.7-46 0l-110 110.1L636 546.6c-12.7-12.7-33.3-12.7-46 0-12.7 12.7-12.7 33.3 0 46l110.1 110.1-110 110.1c-12.7 12.7-12.7 33.3 0 46 6.3 6.3 14.7 9.5 23 9.5s16.6-3.2 23-9.5l110.1-110.1 110.1 110.1c6.3 6.3 14.7 9.5 23 9.5s16.6-3.2 23-9.5c12.7-12.7 12.7-33.3 0-46L792.1 702.7z" p-id="2264"></path><path d="M474.9 893.2H133v-760h708.7v239.4c0 19.3 15.7 35 35 35s35-15.7 35-35V98.2c0-19.3-15.7-35-35-35H98c-19.3 0-35 15.7-35 35v830c0 19.3 15.7 35 35 35h376.9c19.3 0 35-15.7 35-35s-15.6-35-35-35z" p-id="2265"></path><path d="M753.4 302.1c0-19.3-15.7-35-35-35H267.8c-19.3 0-35 15.7-35 35s15.7 35 35 35h450.5c19.4 0 35.1-15.7 35.1-35zM493.5 508.6c0-19.3-15.7-35-35-35H267.8c-19.3 0-35 15.7-35 35s15.7 35 35 35h190.7c19.3 0 35-15.7 35-35zM267.8 680.2c-19.3 0-35 15.7-35 35s15.7 35 35 35h106.5c19.3 0 35-15.7 35-35s-15.7-35-35-35H267.8z" p-id="2266"></path></svg>