<svg t="1665383931048" class="icon" viewBox="0 0 1024 1024" version="1.1" xmlns="http://www.w3.org/2000/svg" p-id="1553" width="200" height="200"><path d="M873.813333 116.053333H136.533333c-36.408889 0-63.715556 29.582222-63.715555 63.715556v532.48c0 36.408889 29.582222 63.715556 63.715555 63.715555h304.924445v100.124445H341.333333c-13.653333 0-22.755556 13.653333-22.755555 25.031111 0 13.653333 11.377778 25.031111 22.755555 25.031111h327.68c13.653333 0 22.755556-13.653333 22.755556-25.031111 0-13.653333-11.377778-25.031111-22.755556-25.031111H568.888889v-100.124445h304.924444c36.408889 0 63.715556-29.582222 63.715556-63.715555V179.768889c0-36.408889-29.582222-63.715556-63.715556-63.715556zM821.475556 705.422222H188.871111c-11.377778 0-22.755556-11.377778-22.755555-22.755555s11.377778-22.755556 22.755555-22.755556h632.604445c13.653333 0 22.755556 11.377778 22.755555 22.755556s-11.377778 22.755556-22.755555 22.755555z" fill="" p-id="1554"></path></svg>