<svg t="1665301877879" class="icon" viewBox="0 0 1024 1024" version="1.1" xmlns="http://www.w3.org/2000/svg" p-id="1840" width="200" height="200"><path d="M960 85.333333h-896A64 64 0 0 0 0 149.333333v554.666667A64 64 0 0 0 64 768H426.666667l-19.2 37.973333A85.333333 85.333333 0 0 1 331.093333 853.333333H320a21.333333 21.333333 0 0 0-21.333333 21.333334v42.666666a21.333333 21.333333 0 0 0 21.333333 21.333334h384a21.333333 21.333333 0 0 0 21.333333-21.333334v-42.666666a21.333333 21.333333 0 0 0-21.333333-21.333334h-11.093333a85.333333 85.333333 0 0 1-76.373334-47.36L597.333333 768h362.666667a64 64 0 0 0 64-64v-554.666667A64 64 0 0 0 960 85.333333zM938.666667 597.333333H85.333333V170.666667h853.333334z" p-id="1841"></path></svg>